<svg width="981" height="258" viewBox="0 0 981 258" fill="none" xmlns="http://www.w3.org/2000/svg">
<g clip-path="url(#clip0_3_87)">
<path d="M318.5 226V111.25H351.575V138.25H352.25V226H318.5ZM395.675 226V153.1C395.675 147.25 394.1 142.975 390.95 140.275C387.95 137.425 383.675 136 378.125 136C373.325 136 368.9 137.125 364.85 139.375C360.95 141.475 357.875 144.55 355.625 148.6C353.375 152.5 352.25 157.15 352.25 162.55L349.325 136.675C353.075 128.275 358.475 121.6 365.525 116.65C372.725 111.55 381.35 109 391.4 109C403.4 109 412.7 112.375 419.3 119.125C426.05 125.875 429.425 134.35 429.425 144.55V226H395.675ZM472.85 226V153.1C472.85 147.25 471.275 142.975 468.125 140.275C465.125 137.425 460.85 136 455.3 136C450.5 136 446.075 137.125 442.025 139.375C438.125 141.475 435.05 144.55 432.8 148.6C430.55 152.5 429.425 157.15 429.425 162.55L424.25 136.675C428 128.275 433.55 121.6 440.9 116.65C448.4 111.55 457.4 109 467.9 109C480.35 109 489.875 112.525 496.475 119.575C503.225 126.475 506.6 135.55 506.6 146.8V226H472.85ZM575.141 226V111.25H608.216V138.25H608.891V226H575.141ZM608.891 166.15L605.966 138.925C608.666 129.175 613.091 121.75 619.241 116.65C625.391 111.55 633.041 109 642.191 109C645.041 109 647.141 109.3 648.491 109.9V141.4C647.741 141.1 646.691 140.95 645.341 140.95C643.991 140.8 642.341 140.725 640.391 140.725C629.591 140.725 621.641 142.675 616.541 146.575C611.441 150.325 608.891 156.85 608.891 166.15ZM664.789 226V111.25H697.864V138.25H698.539V226H664.789ZM698.539 166.15L695.614 138.925C698.314 129.175 702.739 121.75 708.889 116.65C715.039 111.55 722.689 109 731.839 109C734.689 109 736.789 109.3 738.139 109.9V141.4C737.389 141.1 736.339 140.95 734.989 140.95C733.639 140.8 731.989 140.725 730.039 140.725C719.239 140.725 711.289 142.675 706.189 146.575C701.089 150.325 698.539 156.85 698.539 166.15ZM807.13 228.25C794.53 228.25 783.43 225.775 773.83 220.825C764.38 215.725 756.955 208.675 751.555 199.675C746.305 190.525 743.68 180.025 743.68 168.175C743.68 156.325 746.305 145.975 751.555 137.125C756.955 128.275 764.38 121.375 773.83 116.425C783.43 111.475 794.53 109 807.13 109C819.88 109 830.98 111.475 840.43 116.425C850.03 121.375 857.455 128.275 862.705 137.125C867.955 145.975 870.58 156.325 870.58 168.175C870.58 180.025 867.88 190.525 862.48 199.675C857.23 208.675 849.805 215.725 840.205 220.825C830.755 225.775 819.73 228.25 807.13 228.25ZM807.13 201.7C812.38 201.7 817.105 200.35 821.305 197.65C825.655 194.95 829.105 191.125 831.655 186.175C834.205 181.075 835.48 175 835.48 167.95C835.48 157.6 832.705 149.65 827.155 144.1C821.755 138.4 815.08 135.55 807.13 135.55C799.18 135.55 792.43 138.4 786.88 144.1C781.48 149.8 778.78 157.75 778.78 167.95C778.78 175 780.055 181.075 782.605 186.175C785.155 191.125 788.53 194.95 792.73 197.65C797.08 200.35 801.88 201.7 807.13 201.7ZM888.471 226V111.25H921.546V138.25H922.221V226H888.471ZM922.221 166.15L919.296 138.925C921.996 129.175 926.421 121.75 932.571 116.65C938.721 111.55 946.371 109 955.521 109C958.371 109 960.471 109.3 961.821 109.9V141.4C961.071 141.1 960.021 140.95 958.671 140.95C957.321 140.8 955.671 140.725 953.721 140.725C942.921 140.725 934.971 142.675 929.871 146.575C924.771 150.325 922.221 156.85 922.221 166.15Z" fill="black"/>
<circle cx="541.5" cy="205.5" r="14.5" fill="url(#paint0_linear_3_87)"/>
<path d="M12 233V24.094C12 16.5617 20.0121 11.7335 26.6718 15.2523L121.172 65.1846C124.449 66.9165 126.5 70.3193 126.5 74.0263V229" stroke="black" stroke-width="8" stroke-linecap="round"/>
<path d="M259.5 232.5V23.594C259.5 16.0617 251.488 11.2335 244.828 14.7523L150.328 64.6846C147.051 66.4165 145 69.8193 145 73.5263V228.5" stroke="url(#paint1_linear_3_87)" stroke-width="8" stroke-linecap="round"/>
<path d="M263 233C263 237.8 258.333 238.667 256 238.5V226.5C258.333 226.667 263 228.2 263 233Z" fill="#06BAE9" stroke="#06BAE9"/>
<path d="M8 234.031C8 239.222 13.3333 240.16 16 239.98V227C13.3333 227.18 8 228.839 8 234.031Z" fill="black"/>
<path d="M98.5 117.5C101.814 117.5 104.5 114.814 104.5 111.5V92C104.5 88.6863 101.814 86 98.5 86H33C29.6863 86 27 88.6863 27 92V111.5C27 114.814 29.6863 117.5 33 117.5H98.5Z" fill="black"/>
<path d="M51.5 159.5C51.5 162.814 54.1863 165.5 57.5 165.5H98.5C101.814 165.5 104.5 162.814 104.5 159.5V143.5C104.5 140.186 101.814 137.5 98.5 137.5H57.5C54.1863 137.5 51.5 140.186 51.5 143.5V159.5Z" fill="black"/>
<path d="M74.4564 193.638C73.3344 190.208 76.1877 187 79.7967 187H98.5C101.814 187 104.5 189.686 104.5 193V207.012C104.5 210.119 102.116 212.75 99.024 212.447C90.3768 211.598 78.8438 207.051 74.4564 193.638Z" fill="black"/>
<path d="M98.5 117.5C101.814 117.5 104.5 114.814 104.5 111.5V92C104.5 88.6863 101.814 86 98.5 86H33C29.6863 86 27 88.6863 27 92V111.5C27 114.814 29.6863 117.5 33 117.5H98.5Z" stroke="black"/>
<path d="M51.5 159.5C51.5 162.814 54.1863 165.5 57.5 165.5H98.5C101.814 165.5 104.5 162.814 104.5 159.5V143.5C104.5 140.186 101.814 137.5 98.5 137.5H57.5C54.1863 137.5 51.5 140.186 51.5 143.5V159.5Z" stroke="black"/>
<path d="M74.4564 193.638C73.3344 190.208 76.1877 187 79.7967 187H98.5C101.814 187 104.5 189.686 104.5 193V207.012C104.5 210.119 102.116 212.75 99.024 212.447C90.3768 211.598 78.8438 207.051 74.4564 193.638Z" stroke="black"/>
<path d="M172 117.5C168.686 117.5 166 114.814 166 111.5V92C166 88.6863 168.686 86 172 86H237.5C240.814 86 243.5 88.6863 243.5 92V111.5C243.5 114.814 240.814 117.5 237.5 117.5H172Z" fill="url(#paint2_linear_3_87)"/>
<path d="M219 159.5C219 162.814 216.314 165.5 213 165.5H172C168.686 165.5 166 162.814 166 159.5V143.5C166 140.186 168.686 137.5 172 137.5H213C216.314 137.5 219 140.186 219 143.5V159.5Z" fill="url(#paint3_linear_3_87)"/>
<path d="M196.044 193.638C197.166 190.208 194.312 187 190.703 187H172C168.686 187 166 189.686 166 193V207.012C166 210.119 168.384 212.75 171.476 212.447C180.123 211.598 191.656 207.051 196.044 193.638Z" fill="url(#paint4_linear_3_87)"/>
<path d="M172 117.5C168.686 117.5 166 114.814 166 111.5V92C166 88.6863 168.686 86 172 86H237.5C240.814 86 243.5 88.6863 243.5 92V111.5C243.5 114.814 240.814 117.5 237.5 117.5H172Z" stroke="url(#paint5_linear_3_87)"/>
<path d="M219 159.5C219 162.814 216.314 165.5 213 165.5H172C168.686 165.5 166 162.814 166 159.5V143.5C166 140.186 168.686 137.5 172 137.5H213C216.314 137.5 219 140.186 219 143.5V159.5Z" stroke="url(#paint6_linear_3_87)"/>
<path d="M196.044 193.638C197.166 190.208 194.312 187 190.703 187H172C168.686 187 166 189.686 166 193V207.012C166 210.119 168.384 212.75 171.476 212.447C180.123 211.598 191.656 207.051 196.044 193.638Z" stroke="url(#paint7_linear_3_87)"/>
<path d="M122.5 236V226.5C125.167 225.167 130.5 223.9 130.5 229.5C130.5 235.1 125.167 236.167 122.5 236Z" fill="black"/>
<path d="M149 235.642V226.142C146.333 224.809 141 223.542 141 229.142C141 234.742 146.333 235.809 149 235.642Z" fill="#06BDE9"/>
</g>
<defs>
<linearGradient id="paint0_linear_3_87" x1="541.5" y1="191" x2="538" y2="211.5" gradientUnits="userSpaceOnUse">
<stop stop-color="#0363ED"/>
<stop offset="1" stop-color="#06C4E9"/>
</linearGradient>
<linearGradient id="paint1_linear_3_87" x1="259" y1="48.5" x2="145" y2="244.5" gradientUnits="userSpaceOnUse">
<stop stop-color="#0363ED"/>
<stop offset="0.748968" stop-color="#06C4E9"/>
</linearGradient>
<linearGradient id="paint2_linear_3_87" x1="243" y1="39.5" x2="180" y2="195.5" gradientUnits="userSpaceOnUse">
<stop stop-color="#0363ED"/>
<stop offset="1" stop-color="#06C4E9"/>
</linearGradient>
<linearGradient id="paint3_linear_3_87" x1="243" y1="39.5" x2="180" y2="195.5" gradientUnits="userSpaceOnUse">
<stop stop-color="#0363ED"/>
<stop offset="1" stop-color="#06C4E9"/>
</linearGradient>
<linearGradient id="paint4_linear_3_87" x1="243" y1="39.5" x2="180" y2="195.5" gradientUnits="userSpaceOnUse">
<stop stop-color="#0363ED"/>
<stop offset="1" stop-color="#06C4E9"/>
</linearGradient>
<linearGradient id="paint5_linear_3_87" x1="236.5" y1="55.5" x2="173" y2="205.5" gradientUnits="userSpaceOnUse">
<stop stop-color="#0363ED"/>
<stop offset="1" stop-color="#06C4E9"/>
</linearGradient>
<linearGradient id="paint6_linear_3_87" x1="236.5" y1="55.5" x2="173" y2="205.5" gradientUnits="userSpaceOnUse">
<stop stop-color="#0363ED"/>
<stop offset="1" stop-color="#06C4E9"/>
</linearGradient>
<linearGradient id="paint7_linear_3_87" x1="236.5" y1="55.5" x2="173" y2="205.5" gradientUnits="userSpaceOnUse">
<stop stop-color="#0363ED"/>
<stop offset="1" stop-color="#06C4E9"/>
</linearGradient>
<clipPath id="clip0_3_87">
<rect width="981" height="258" fill="white"/>
</clipPath>
</defs>
</svg>
